HIERARCHY
ROOT Hips
{
	OFFSET	0.00	0.00	0.00
	CHANNELS 6 Xposition Yposition Zposition Zrotation Xrotation Yrotation
	JOINT LeftUpLeg
	{
		OFFSET	 0.126116	-0.014019	-0.065224
		CHANNELS 3 Zrotation Xrotation Yrotation
		JOINT LeftLeg
		{
			OFFSET	 0.000000	 0.000000	 0.569914
			CHANNELS 3 Zrotation Xrotation Yrotation
			JOINT LeftFoot
			{
				OFFSET	 0.000000	 0.000000	 0.544423
				CHANNELS 3 Zrotation Xrotation Yrotation
				JOINT LeftToeBase
				{
					OFFSET	 0.000000	 0.000000	 0.207117
					CHANNELS 3 Zrotation Xrotation Yrotation
					End Site
					{
						OFFSET	 0.000000	 0.000000	 0.207117
					}
				}
			}
		}
	}
	JOINT RightUpLeg
	{
		OFFSET	-0.124023	-0.008373	-0.065224
		CHANNELS 3 Zrotation Xrotation Yrotation
		JOINT RightLeg
		{
			OFFSET	 0.000000	 0.000000	 0.570047
			CHANNELS 3 Zrotation Xrotation Yrotation
			JOINT RightFoot
			{
				OFFSET	 0.000000	 0.000000	 0.544354
				CHANNELS 3 Zrotation Xrotation Yrotation
				JOINT RightToeBase
				{
					OFFSET	 0.000000	 0.000000	 0.207540
					CHANNELS 3 Zrotation Xrotation Yrotation
					End Site
					{
						OFFSET	 0.000000	 0.000000	 0.207540
					}
				}
			}
		}
	}
	JOINT Spine
	{
		OFFSET	 0.000184	-0.007763	 0.117403
		CHANNELS 3 Zrotation Xrotation Yrotation
		JOINT Spine1
		{
			OFFSET	 0.000000	 0.000000	 0.137269
			CHANNELS 3 Zrotation Xrotation Yrotation
			JOINT Spine2
			{
				OFFSET	 0.000000	 0.000000	 0.156879
				CHANNELS 3 Zrotation Xrotation Yrotation
				JOINT LeftShoulder
				{
					OFFSET	 0.080501	-0.002496	 0.160144
					CHANNELS 3 Zrotation Xrotation Yrotation
					JOINT LeftArm
					{
						OFFSET	 0.000000	 0.000000	 0.164363
						CHANNELS 3 Zrotation Xrotation Yrotation
						JOINT LeftForeArm
						{
							OFFSET	 0.000000	 0.000000	 0.364576
							CHANNELS 3 Zrotation Xrotation Yrotation
							JOINT LeftHand
							{
								OFFSET	 0.000000	 0.000000	 0.360812
								CHANNELS 3 Zrotation Xrotation Yrotation
								JOINT LeftHandIndex1
								{
									OFFSET	 0.000000	 0.000000	 0.086006
									CHANNELS 3 Zrotation Xrotation Yrotation
									JOINT LeftHandIndex2
									{
										OFFSET	 0.000000	 0.000000	 0.047236
										CHANNELS 3 Zrotation Xrotation Yrotation
										JOINT LeftHandIndex3
										{
											OFFSET	-0.004284	-0.000551	 0.038166
											CHANNELS 3 Zrotation Xrotation Yrotation
											End Site
											{
												OFFSET	-0.004284	-0.000551	 0.038166
											}
										}
									}
								}
							}
						}
					}
				}
				JOINT Neck
				{
					OFFSET	 0.000000	 0.000000	 0.176489
					CHANNELS 3 Zrotation Xrotation Yrotation
					JOINT Head
					{
						OFFSET	 0.000000	-0.001747	 0.077940
						CHANNELS 3 Zrotation Xrotation Yrotation
						End Site
						{
							OFFSET	 0.000000	-0.001747	 0.077940
						}
					}
				}
				JOINT RightShoulder
				{
					OFFSET	-0.080363	 0.000306	 0.159706
					CHANNELS 3 Zrotation Xrotation Yrotation
					JOINT RightArm
					{
						OFFSET	 0.000000	 0.000000	 0.164196
						CHANNELS 3 Zrotation Xrotation Yrotation
						JOINT RightForeArm
						{
							OFFSET	 0.000000	 0.000000	 0.365611
							CHANNELS 3 Zrotation Xrotation Yrotation
							JOINT RightHand
							{
								OFFSET	 0.000000	 0.000000	 0.360648
								CHANNELS 3 Zrotation Xrotation Yrotation
								JOINT RightHandIndex1
								{
									OFFSET	 0.000000	 0.000000	 0.069977
									CHANNELS 3 Zrotation Xrotation Yrotation
									JOINT RightHandIndex2
									{
										OFFSET	 0.000000	 0.000000	 0.052305
										CHANNELS 3 Zrotation Xrotation Yrotation
										JOINT RightHandIndex3
										{
											OFFSET	 0.009002	-0.000782	 0.042196
											CHANNELS 3 Zrotation Xrotation Yrotation
											End Site
											{
												OFFSET	 0.009002	-0.000782	 0.042196
											}
										}
									}
								}
							}
						}
					}
				}
			}
		}
	}
}
MOTION
Frames:    7
Frame Time: 0.03333334
-0.059079	-2.234401	 1.164771	 5.022779	-1.386526	-3.590933	 15.204140	-14.671520	-174.028900	 1.032465	-48.780400	 0.511304	 102.389900	 82.760830	-106.741900	-2.369729	 31.558710	-0.068659	-20.179600	-37.452780	-176.342000	 12.423540	-56.703340	 11.076100	 6.850335	 77.456630	-0.913980	 2.358783	 33.027120	 0.103854	 14.766890	 8.712609	 0.923132	 1.402174	 3.188705	 2.923074	-8.085696	-2.920499	-3.738831	-93.936770	 58.999760	 175.387200	 15.910710	 33.931390	-36.002310	-19.520360	 3.022488	-9.223856	-0.785641	-5.082107	-7.544438	-4.869057	 19.248480	-2.786515	-3.884047	 21.440630	 2.205308	-4.808270	 5.545386	 0.146975	-0.075864	-5.075160	 0.184164	-9.976771	 1.726056	 2.066736	 89.779440	 61.648850	 179.993700	-18.334770	 48.759740	 11.917230	 16.276180	 3.297372	 11.825110	-2.977432	 9.464669	 0.255697	 6.293697	 24.842410	-0.540077	 1.889736	 44.666400	-6.996889	 0.539245	 24.219270	 3.561704
-0.060626	-2.267208	 1.163523	 5.858329	-0.686049	-3.667109	 14.159270	-13.581500	-174.425900	 1.443737	-48.264880	 0.814202	 109.695900	 83.008240	-114.157000	-2.368299	 31.797070	-0.074051	-22.967540	-39.754680	-178.107000	 12.414790	-51.749000	 10.414590	 5.096809	 81.172630	-0.117394	 2.359032	 32.991210	 0.103019	 15.463450	 8.246883	 0.736798	 1.480928	 3.173224	 3.273272	-8.745800	-3.030367	-4.032568	-94.139270	 59.019520	 174.952500	 14.878510	 31.866560	-37.032610	-19.792530	 2.994777	-9.182924	-0.133403	-5.422432	-8.365292	-4.863239	 19.406290	-2.798714	-3.872831	 21.583890	 2.193920	-4.803825	 5.597785	 0.143909	-0.032625	-5.109598	 0.240372	-10.473560	 1.641450	 1.881498	 89.703700	 61.740940	 179.812300	-18.051330	 49.649660	 8.992266	 15.439560	 3.512810	 14.405840	-3.199695	 10.029820	-0.053122	 6.273937	 23.384170	-0.553994	 2.060657	 43.244510	-7.148598	 0.835670	 22.902420	 3.414490
-0.062229	-2.307785	 1.160260	 6.420131	 0.136288	-4.021217	 13.419370	-12.025240	-174.690900	 1.744076	-47.552490	 1.026773	 122.544700	 82.986840	-127.019700	-2.365831	 32.194710	-0.083120	-24.830180	-41.976520	-179.888100	 12.169090	-45.064760	 9.228959	 5.555425	 82.362800	-2.064162	 2.361105	 32.681770	 0.095851	 16.522200	 7.583684	 0.814382	 1.575250	 3.474262	 3.591069	-9.348303	-3.234316	-4.329116	-94.348790	 58.955420	 174.515400	 13.400480	 29.424160	-38.256560	-20.431310	 2.955964	-9.119345	-0.045072	-6.113228	-8.101819	-4.848091	 19.765290	-2.816887	-3.853267	 21.832650	 2.174040	-4.792171	 5.734995	 0.135860	-0.007200	-5.175482	 0.307552	-10.967540	 1.552525	 1.779163	 89.572730	 61.901740	 179.496200	-17.513150	 50.565950	 6.153715	 14.008450	 3.506086	 16.395510	-3.651960	 10.754220	-0.963626	 6.241326	 21.421330	-0.613975	 2.239975	 41.665850	-7.306352	 1.261683	 20.957200	 3.212963
-0.064254	-2.352753	 1.155231	 6.620577	 0.599937	-4.396045	 12.884020	-9.719523	-175.143100	 1.891845	-46.608810	 1.118580	 134.111400	 82.969040	-138.436400	-2.359406	 33.171450	-0.105641	-24.359020	-43.302600	 179.234600	 11.173300	-38.162160	 7.438544	 30.165930	 86.398750	-27.938210	 2.353593	 33.767310	 0.121162	 17.515140	 7.028586	 1.029961	 1.636950	 4.174968	 3.664913	-9.721546	-3.509592	-4.469256	-94.469700	 58.875490	 174.270700	 11.612630	 27.338820	-39.423760	-20.990720	 2.906735	-9.040352	-0.427530	-6.379769	-7.548911	-4.827582	 20.181090	-2.822470	-3.826278	 22.173230	 2.146618	-4.772121	 5.970466	 0.121972	 0.020433	-5.269159	 0.340552	-11.272050	 1.459183	 1.669518	 89.456410	 62.021140	 179.212800	-16.626980	 51.256950	 3.921904	 12.354560	 3.258904	 16.852510	-3.959341	 11.232640	-2.426226	 6.199908	 19.244950	-0.700878	 2.507595	 39.130230	-7.538779	 1.730753	 18.745050	 3.005465
-0.066898	-2.394796	 1.149312	 6.849908	 0.681340	-4.653742	 12.251900	-7.138832	-175.774400	 2.086946	-45.571890	 1.238650	 140.835700	 83.286350	-145.029900	-2.345447	 35.059380	-0.150306	-23.795450	-44.546090	 178.675200	 11.098670	-33.289920	 6.573323	 42.665330	 86.381660	-41.454240	 2.340867	 35.418280	 0.160639	 18.019110	 7.015246	 1.166925	 1.628539	 4.446009	 3.766665	-9.890368	-3.694873	-4.575052	-94.527220	 58.885660	 174.146900	 10.009640	 26.084230	-40.261490	-20.970510	 2.852285	-8.962902	-0.743116	-7.010229	-7.672460	-4.836320	 20.418290	-2.942935	-3.800617	 22.494150	 2.120567	-4.746389	 6.271426	 0.104100	 0.076423	-5.357017	 0.352061	-11.352890	 1.466140	 1.442563	 89.384250	 61.999560	 179.039200	-15.582670	 51.591600	 2.020751	 11.041300	 2.998217	 16.379410	-3.916010	 11.157950	-3.687840	 6.172778	 17.252370	-0.706083	 2.758957	 36.533500	-7.753325	 2.145576	 16.729420	 2.835198
-0.071459	-2.442721	 1.140043	 7.123534	 0.624032	-4.588283	 11.351470	-4.201877	-176.926300	 2.559946	-44.623130	 1.550829	 142.564600	 84.750850	-146.608100	-2.307791	 39.117860	-0.252230	-23.306430	-47.070130	 177.685000	 10.949800	-30.798700	 6.056818	 13.557150	 82.625980	-12.284110	 2.337337	 35.840480	 0.170939	 18.284860	 7.087411	 1.101432	 1.628798	 4.715306	 3.731720	-9.942883	-3.787855	-4.602956	-94.530270	 59.091020	 174.106400	 8.350346	 25.193730	-41.239380	-20.776320	 2.778322	-8.858543	-1.260882	-8.101864	-8.259630	-4.864713	 20.561880	-3.150552	-3.774225	 22.821500	 2.093759	-4.706884	 6.731027	 0.076517	 0.151055	-5.449457	 0.306998	-11.254450	 1.584112	 1.234178	 89.356930	 61.779260	 178.981500	-14.447480	 51.713420	-0.693053	 9.606290	 2.737012	 17.178200	-3.812487	 10.730960	-4.912516	 6.176829	 14.959940	-0.536513	 2.958645	 34.307430	-7.920794	 2.599083	 14.465320	 2.663987
-0.078254	-2.500436	 1.129160	 7.434472	 0.293389	-3.828604	 10.544760	-0.528986	-179.129900	 2.260953	-43.201130	 1.306560	 103.302800	 88.360880	-106.149300	-2.195218	 47.086260	-0.485034	-21.462250	-48.970690	 177.057700	 8.004985	-29.986770	 4.405475	-3.477503	 73.602570	 8.842551	 2.340308	 35.485490	 0.162273	 18.220390	 7.241715	 0.390045	 1.564301	 4.854273	 3.642663	-9.841649	-3.309211	-4.561758	-94.469920	 59.329650	 174.195800	 6.909205	 24.350010	-42.301410	-20.698170	 2.686748	-8.727739	-1.886835	-8.744215	-8.603849	-4.889535	 20.687450	-3.334707	-3.756498	 23.039610	 2.075771	-4.648942	 7.399655	 0.035768	 0.240434	-5.477170	 0.250568	-10.987690	 2.037510	 1.444862	 89.354260	 61.480350	 178.986100	-13.481080	 51.587370	-2.647890	 8.188247	 2.418773	 17.504360	-3.974267	 10.120960	-5.788668	 6.249787	 12.497240	-0.079148	 3.104295	 32.585590	-8.041072	 3.037730	 12.219170	 2.513908
